<?xml version="1.0" encoding="utf-8" ?>
<svg xmlns="http://www.w3.org/2000/svg" xmlns:xlink="http://www.w3.org/1999/xlink" width="1024" height="1024">
	<path fill="white" d="M0 0L1024 0L1024 1024L0 1024L0 0Z"/>
	<path fill="#282627" d="M831.074 594.022C832.175 593.954 833.272 593.88 834.337 594.248C837.337 595.284 845.841 599.412 846.872 602.706C847.696 605.341 846.615 608.715 845.504 611.096C844.373 613.521 843.586 614.605 841.074 615.566C840.183 615.404 839.299 615.238 838.441 614.942C833.993 613.411 827.725 608.36 825.804 604.129C824.997 602.351 824.736 600.447 825.587 598.629C826.64 596.38 828.804 594.839 831.074 594.022Z"/>
	<path fill="#282627" d="M390.442 893.059C391.643 893.12 392.986 893.256 394.096 893.731C396.419 894.724 398.236 896.959 398.974 899.345C399.641 901.502 399.454 903.769 398.368 905.755C395.124 911.686 374.315 918.071 367.456 919.941C365.834 920.013 364.599 919.972 363.117 919.242C361.301 918.348 359.925 916.866 359.291 914.93C358.506 912.532 358.834 909.683 360.097 907.51C360.988 905.977 362.379 904.695 363.898 903.795C366.208 902.428 369.074 901.936 371.554 900.904C377.742 898.327 383.954 894.721 390.442 893.059Z"/>
	<path fill="#282627" d="M438.221 894.506C439.589 894.428 440.786 894.36 442.108 894.841C444.598 895.746 446.874 898.128 447.937 900.508C448.828 902.505 448.857 904.682 447.968 906.687C445.711 911.772 411.462 932.698 404.792 935.464C403.052 935.607 401.411 935.648 399.728 935.096C397.632 934.41 395.926 932.565 394.97 930.625C394.108 928.876 394.067 926.963 394.707 925.129C395.385 923.184 396.858 921.451 398.413 920.14C404.395 915.094 412.384 911.428 419.036 907.174C425.456 903.068 431.359 897.86 438.221 894.506Z"/>
	<path fill="#282627" d="M625.482 660.518C626.323 660.513 627.167 660.503 628.005 660.586C630.787 660.861 634.062 662.61 635.699 664.901C636.958 666.661 637.277 668.557 636.843 670.655C634.923 679.94 616.743 716.117 611.154 724.366C610.239 725.717 609.076 726.612 607.727 727.498C606.499 727.567 605.216 727.662 603.986 727.575C601.737 727.414 599.106 726.158 597.628 724.446C596.201 722.793 595.807 720.58 596.124 718.458C596.962 712.834 603.093 703.835 605.837 698.546C608.83 692.775 611.851 686.952 614.412 680.974C616.557 675.969 618.306 670.613 620.912 665.832C622.193 663.481 623.288 662.072 625.482 660.518Z"/>
	<path fill="#282627" d="M651.98 892.594C653.467 892.498 654.771 892.588 656.23 892.929C659.486 893.69 662.685 895.79 664.331 898.75C665.492 900.836 665.678 903.248 664.999 905.52C661.537 917.105 630.817 931.166 620.272 937.009C619.54 937.411 618.788 937.833 618.002 938.117C616.478 938.669 614.666 938.636 613.234 937.846C611.152 936.699 609.234 934.324 608.627 932.023C608.099 930.019 608.464 928.114 609.6 926.394C613.758 920.101 635.514 900.582 642.327 896.376C645.429 894.461 648.404 893.326 651.98 892.594Z"/>
	<path fill="#282627" d="M639.083 618.016C640.772 617.88 642.359 617.791 644.012 618.251C645.452 618.651 646.749 619.468 647.649 620.677C652.838 627.643 658.871 642.44 663.231 650.819C674.458 672.396 687.161 693.803 702.593 712.658C705.986 716.805 710.607 721.296 713.053 726.07C713.972 727.864 713.943 730.584 713.276 732.454C712.291 735.216 710.173 736.639 707.68 737.93C706.545 738.204 705.32 738.451 704.152 738.246C696.942 736.98 676.047 705.368 671.328 698.075C660.114 680.743 650.486 663.093 641.23 644.68C638.78 639.807 635.375 634.386 633.934 629.152C633.468 627.457 633.252 625.432 633.704 623.709C634.451 620.864 636.723 619.46 639.083 618.016Z"/>
	<path fill="#282627" d="M760.207 526.051C761.301 526.098 762.327 526.17 763.387 526.465C765.473 527.045 767.097 528.21 768.2 530.079C771.208 535.174 772.518 542.211 774.49 547.824C778.121 558.16 782.123 568.352 787.197 578.074Q790.408 584.318 794.024 590.337Q797.639 596.357 801.643 602.124Q805.648 607.892 810.023 613.384Q814.398 618.876 819.126 624.067C821.579 626.813 824.04 629.558 826.689 632.119C830.289 635.601 837.865 640.94 839.953 645.086C840.865 646.896 840.701 649.086 840.063 650.959C838.808 654.645 836.711 656.985 833.228 658.58C826.161 655.307 819.967 648.852 814.468 643.411C795.147 624.292 778.6 600.2 767.285 575.503C762.557 565.184 758.734 554.364 754.829 543.711C753.499 540.08 751.276 534.719 753.189 530.998C754.631 528.195 757.31 526.878 760.207 526.051Z"/>
	<path fill="#282627" d="M651.164 853.206Q652.456 853.118 653.75 853.09Q655.045 853.061 656.339 853.092Q657.633 853.124 658.925 853.214Q660.217 853.304 661.503 853.454Q662.789 853.603 664.067 853.812Q665.345 854.02 666.612 854.287Q667.879 854.553 669.132 854.878Q670.385 855.203 671.623 855.584Q672.86 855.966 674.078 856.404Q675.297 856.842 676.494 857.336Q677.691 857.829 678.864 858.377Q680.037 858.925 681.184 859.526Q682.331 860.127 683.449 860.781Q684.567 861.434 685.654 862.137Q686.74 862.841 687.794 863.594Q688.847 864.347 689.865 865.147C694.975 869.101 704.446 876.906 705.045 883.756C705.261 886.235 704.346 888.119 702.732 889.952C701.282 891.6 699.464 892.819 697.21 892.862C691.074 892.979 686.68 886.035 682.766 882.158C675.199 874.662 664.967 869.665 654.2 869.768C634.001 869.962 623.996 884.885 611.601 898.251Q600.178 910.338 588.554 922.232C583.108 927.723 557.933 953.912 552.814 954.733C550.566 955.094 548.263 954.395 546.471 953.02C544.333 951.38 543.245 948.82 543.006 946.179C542.813 944.04 543.39 942.608 544.742 940.99C548.29 936.742 552.649 932.951 556.596 929.063C565.746 920.049 575.052 911.191 584.125 902.1Q592.993 893.194 601.531 883.971C608.314 876.582 615.47 867.049 623.983 861.664C632.067 856.551 641.732 854.008 651.164 853.206Z"/>
	<path fill="#282627" d="M652.829 814.718C653.976 814.652 655.109 814.653 656.257 814.664C682.181 814.896 705.217 824.988 723.34 843.557C726.496 846.789 732.06 852.475 731.831 857.297C731.727 859.513 730.638 861.569 728.985 863.029C727.255 864.556 725.033 865.359 722.727 865.203C718.039 864.886 715.103 859.825 712.146 856.679C698.31 841.958 678.609 832.098 658.23 831.764C640.896 831.481 621.374 837.576 607.925 848.688C599.206 855.891 591.54 865.117 583.764 873.338C572.702 885.035 561.658 896.656 550.14 907.908C537.934 919.899 525.542 931.199 512.591 942.384C508.083 946.278 503.396 951.099 498.46 954.366C497.146 955.235 495.58 955.877 494.014 956.092C491.648 956.417 489.194 955.857 487.314 954.355C485.709 953.073 484.717 951.288 484.537 949.236C484.276 946.265 485.852 943.5 487.784 941.379C491.733 937.043 496.959 933.282 501.463 929.488C509.384 922.819 517.246 916.103 524.732 908.944Q541.079 893.411 556.617 877.068C571.56 861.135 587.623 841.09 605.892 829.312C620.344 819.996 635.796 815.667 652.829 814.718Z"/>
	<path fill="#282627" d="M489.846 500.102C491.346 500.277 492.723 500.44 494.024 501.266C496.213 502.658 497.331 504.78 497.728 507.303C498.653 513.18 495.997 521.038 494.59 526.788Q492.824 533.899 490.738 540.924Q488.652 547.948 486.25 554.871Q483.848 561.793 481.135 568.6Q478.423 575.407 475.405 582.084Q472.387 588.761 469.07 595.295Q465.753 601.829 462.144 608.206Q458.534 614.582 454.64 620.789Q450.746 626.996 446.575 633.021Q444.241 636.394 441.822 639.707Q439.404 643.02 436.904 646.272Q434.404 649.523 431.823 652.711Q429.242 655.899 426.582 659.022Q423.922 662.144 421.184 665.199Q418.447 668.254 415.634 671.239Q412.821 674.225 409.934 677.139Q407.048 680.053 404.089 682.893Q401.13 685.734 398.101 688.5Q395.072 691.266 391.974 693.955Q388.877 696.644 385.713 699.255Q382.55 701.865 379.322 704.396Q376.094 706.927 372.803 709.376Q369.513 711.825 366.162 714.191Q362.811 716.557 359.402 718.838Q355.994 721.12 352.529 723.315Q349.064 725.51 345.545 727.618Q342.026 729.726 338.456 731.745Q334.885 733.764 331.265 735.693Q327.645 737.622 323.978 739.46Q320.311 741.297 316.599 743.043Q312.887 744.788 309.133 746.44Q305.378 748.092 301.584 749.649Q297.789 751.207 293.957 752.669Q290.124 754.13 286.256 755.496Q282.388 756.861 278.488 758.13Q274.587 759.398 270.655 760.568Q266.724 761.738 262.765 762.81Q258.805 763.881 254.82 764.853Q250.835 765.825 246.827 766.697Q242.819 767.568 238.79 768.34Q234.762 769.111 230.715 769.781C229.809 769.67 228.859 769.599 228.019 769.208C225.744 768.149 223.81 765.578 222.958 763.275C222.183 761.183 222.084 759.078 223.113 757.061C223.776 755.763 225.066 754.762 226.378 754.204C230.22 752.568 234.896 752.022 238.987 751.167Q248.228 749.239 257.376 746.909Q261.803 745.732 266.193 744.425Q270.583 743.118 274.933 741.682Q279.283 740.247 283.589 738.685Q287.894 737.123 292.153 735.435Q296.411 733.747 300.618 731.934Q304.824 730.122 308.976 728.187Q313.128 726.252 317.221 724.196Q321.314 722.14 325.345 719.965Q329.376 717.79 333.342 715.497Q337.307 713.204 341.204 710.796Q345.1 708.388 348.924 705.867Q352.748 703.345 356.497 700.713Q360.245 698.08 363.915 695.339Q367.584 692.597 371.172 689.749Q374.759 686.901 378.262 683.949Q381.764 680.997 385.178 677.943Q388.592 674.889 391.915 671.737Q395.238 668.584 398.468 665.336Q401.697 662.087 404.829 658.745Q407.961 655.403 410.994 651.97Q414.027 648.537 416.958 645.017Q419.889 641.497 422.715 637.892Q425.541 634.287 428.26 630.601Q430.979 626.915 433.589 623.151Q436.199 619.386 438.697 615.547Q441.195 611.708 443.58 607.797Q445.964 603.886 448.233 599.906Q450.501 595.927 452.652 591.883Q454.803 587.839 456.834 583.733Q458.865 579.628 460.775 575.464Q462.684 571.301 464.471 567.083Q466.258 562.865 467.92 558.597C470.722 551.595 473.005 544.175 474.992 536.899C476.822 530.198 480.871 506.102 483.751 502.55C485.044 500.955 487.971 500.463 489.846 500.102Z"/>
	<path fill="#282627" d="M645.767 776.7C646.346 776.624 646.912 776.553 647.495 776.521C681.659 774.668 715.255 785.254 741.16 807.826C746.63 812.592 757.641 821.244 757.875 828.896C757.939 830.975 757.114 832.844 755.69 834.334C753.969 836.136 751.808 836.936 749.332 836.869C744.709 836.743 740.979 831.512 737.94 828.49C715.032 805.702 686.576 793.459 653.995 793.671C591.344 794.078 563.901 841.668 525.151 881.217C505.659 902.044 483.766 921.129 461.391 938.799C456.874 942.367 451.771 947.989 445.998 949.129C443.727 949.578 441.327 949.167 439.425 947.82Q439.098 947.586 438.796 947.319Q438.495 947.053 438.222 946.757Q437.949 946.461 437.708 946.139Q437.467 945.817 437.259 945.472Q437.052 945.127 436.881 944.763Q436.71 944.399 436.577 944.019Q436.444 943.639 436.35 943.248Q436.256 942.857 436.203 942.458C435.904 940.098 436.548 937.905 438.067 936.08C442.421 930.846 457.354 920.39 463.623 915.295C474.731 906.268 485.406 896.49 495.846 886.695C510.652 872.804 524.34 857.563 537.804 842.385C547.212 831.778 556.518 820.797 567.036 811.264Q569.054 809.417 571.147 807.654Q573.239 805.891 575.402 804.215Q577.564 802.539 579.794 800.953Q582.023 799.367 584.316 797.874Q586.608 796.38 588.96 794.982Q591.311 793.583 593.718 792.282Q596.125 790.981 598.583 789.78Q601.041 788.578 603.547 787.479Q606.052 786.379 608.6 785.383Q611.148 784.386 613.735 783.495Q616.322 782.604 618.943 781.819Q621.564 781.034 624.215 780.357Q626.866 779.681 629.542 779.113Q632.219 778.545 634.916 778.087Q637.613 777.63 640.327 777.283Q643.041 776.936 645.767 776.7Z"/>
	<path fill="#282627" d="M645.982 738.708C658.835 737.367 672.808 738.858 685.426 741.295C715.42 747.09 737.546 756.471 761.444 775.67C766.584 779.799 779.932 788.77 780.417 795.384Q780.449 795.879 780.43 796.374Q780.411 796.869 780.342 797.36Q780.272 797.851 780.153 798.332Q780.033 798.812 779.865 799.279Q779.697 799.745 779.482 800.191Q779.266 800.638 779.006 801.06Q778.746 801.482 778.445 801.875Q778.143 802.268 777.802 802.628C773.533 807.151 767.985 805.19 764.022 801.494C759.391 797.175 755.122 792.704 750.142 788.74C722.676 766.878 688.976 756.135 653.998 756.339C621.881 756.526 590.735 766.326 565.377 786.359C557.458 792.616 550.415 799.729 543.334 806.897C518.328 832.23 490.985 854.095 461.345 873.7C456.84 876.679 451.778 881.25 446.468 882.438C444.305 882.922 441.929 882.72 440.066 881.441C438.194 880.155 437.033 878.11 436.725 875.875C436.429 873.724 436.959 871.38 438.322 869.665C441.554 865.601 457.606 856.348 462.986 852.599Q475.084 844.155 486.65 834.996C498.215 825.767 509.804 816.172 520.419 805.857C529.276 797.25 537.442 787.955 546.782 779.851Q549.356 777.605 552.018 775.465Q554.681 773.324 557.428 771.294Q560.175 769.264 563.003 767.346Q565.83 765.429 568.733 763.628Q571.635 761.826 574.609 760.144Q577.582 758.462 580.621 756.902Q583.66 755.342 586.76 753.907Q589.86 752.471 593.015 751.162Q596.171 749.854 599.377 748.674Q602.583 747.494 605.834 746.445Q609.085 745.397 612.376 744.481Q615.667 743.564 618.993 742.783Q622.318 742.001 625.672 741.354Q629.027 740.708 632.405 740.198Q635.782 739.688 639.178 739.315Q642.574 738.943 645.982 738.708Z"/>
	<path fill="#282627" d="M624.099 556.473C625.9 556.393 627.586 556.34 629.313 556.945C632.601 558.096 633.981 560.711 635.419 563.677C634.048 577.237 629.504 590.986 625.303 603.9C622.343 613.002 619.632 622.217 616.303 631.194C610.215 647.611 602.552 663.786 594.312 679.224C540.357 780.304 445.117 862.264 335.101 895.844C333.743 896.036 332.228 896.343 330.879 895.989C328.441 895.348 326.126 893.558 324.932 891.341C323.933 889.485 323.615 887.252 324.323 885.24C324.97 883.4 326.406 881.863 328.158 881.012C332.447 878.929 337.855 877.725 342.395 876.09C355.131 871.5 368 866.974 380.23 861.145Q384.847 858.971 389.411 856.69Q393.975 854.408 398.484 852.02Q402.993 849.632 407.445 847.139Q411.897 844.646 416.289 842.048Q420.682 839.451 425.012 836.751Q429.341 834.052 433.607 831.251Q437.872 828.45 442.07 825.55Q446.269 822.65 450.398 819.652Q454.527 816.654 458.584 813.56Q462.642 810.466 466.626 807.277Q470.609 804.089 474.517 800.808Q478.425 797.526 482.254 794.154Q486.084 790.782 489.833 787.321Q493.583 783.86 497.249 780.312Q500.916 776.763 504.499 773.13Q508.082 769.496 511.578 765.78Q515.074 762.063 518.482 758.266Q521.89 754.468 525.208 750.591Q528.526 746.715 531.752 742.761Q534.977 738.807 538.109 734.779Q541.242 730.751 544.278 726.65Q547.315 722.55 550.254 718.379Q553.194 714.208 556.034 709.969Q558.875 705.73 561.615 701.426Q564.356 697.121 566.994 692.754Q569.632 688.386 572.168 683.958Q574.703 679.53 577.133 675.043Q579.563 670.556 581.888 666.014Q584.212 661.471 586.429 656.876Q588.646 652.28 590.754 647.633Q592.863 642.986 594.862 638.292Q596.86 633.597 598.748 628.856C603.765 616.325 608.907 603.429 612.219 590.339C614.631 580.805 615.913 569.471 619.228 560.426C619.298 560.234 619.375 560.043 619.448 559.851C620.873 558.49 622.434 557.518 624.099 556.473Z"/>
	<path fill="#282627" d="M504.24 436.143C511.158 436.572 517.353 437.994 522.81 442.597C531.074 449.568 533.442 460.056 534.324 470.328C540.442 541.533 506.606 622.772 461.162 676.403C453.404 685.559 445.562 694.8 437.15 703.357Q433.497 707.069 429.74 710.674Q425.983 714.28 422.124 717.776Q418.265 721.273 414.308 724.657Q410.35 728.042 406.297 731.312Q402.245 734.582 398.1 737.734Q393.955 740.886 389.722 743.919Q385.488 746.951 381.17 749.861Q376.851 752.771 372.451 755.556Q368.051 758.341 363.573 761Q359.095 763.657 354.543 766.186Q349.991 768.715 345.368 771.112Q340.745 773.509 336.056 775.773Q331.366 778.037 326.614 780.166Q321.862 782.294 317.05 784.286Q312.239 786.278 307.372 788.131Q302.506 789.984 297.588 791.697C282.702 796.978 266.115 803.019 250.287 804.324C248.715 803.669 247.294 802.883 246.181 801.563C244.544 799.623 243.443 796.868 243.838 794.308C244.766 788.308 252.547 787.194 257.342 786.032C308.473 773.633 351.98 753.583 393.192 720.661C458.364 668.597 508.732 591.567 517.949 507.425C519.274 495.322 521.78 466.794 513.917 457.53C510.56 453.576 505.253 453.607 500.496 453.281C497.932 451.614 495.905 449.995 495.274 446.819C494.815 444.512 495.296 442.201 496.664 440.286C498.601 437.577 501.041 436.569 504.24 436.143Z"/>
	<path fill="#282627" d="M495.766 67.7134L496.543 67.6816C512.308 67.0639 528.333 67.1801 544.018 69.0226C605.88 76.2891 664.058 106.158 709.417 148.332Q714.823 153.434 720.046 158.723Q725.269 164.012 730.304 169.481Q735.338 174.95 740.177 180.593Q745.016 186.235 749.654 192.044Q754.292 197.853 758.723 203.821Q763.154 209.79 767.373 215.91Q771.591 222.03 775.592 228.295Q779.594 234.56 783.372 240.961C786.873 246.831 792.748 254.482 792.805 261.436C792.822 263.447 792.36 265.516 790.804 266.905C789.151 268.381 786.421 268.934 784.267 268.719C782.466 268.539 780.297 267.723 779.077 266.343C773.964 260.565 769.699 250.841 765.489 244.04C756.24 229.098 746.236 214.166 735.098 200.552C682.242 135.943 616.916 93.5077 532.778 85.089Q524.78 84.5153 516.762 84.4219Q508.744 84.3285 500.735 84.7157Q492.726 85.1029 484.754 85.9693Q476.782 86.8358 468.877 88.1783C391.541 101.706 325.369 150.847 278.945 212.712C271.718 222.343 264.593 232.496 258.385 242.815C254.747 248.862 251.749 255.776 247.598 261.44C245.883 263.78 243.483 266.226 240.451 266.61C238.429 266.866 235.844 265.904 234.317 264.589C232.879 263.35 232.21 261.556 232.117 259.692C231.78 252.884 237.84 244.94 241.233 239.225C254.199 217.389 268.126 197.283 285.083 178.274C339.398 117.387 412.847 72.4166 495.766 67.7134Z"/>
	<path fill="#282627" d="M504.44 353.188C510.847 352.225 518.073 352.696 524.431 353.876C549.474 358.525 570.656 375.393 584.71 396.105Q586.428 398.61 588.027 401.194Q589.625 403.777 591.101 406.433Q592.576 409.089 593.924 411.811Q595.273 414.533 596.492 417.316Q597.712 420.098 598.799 422.935Q599.886 425.772 600.838 428.657Q601.791 431.542 602.606 434.468Q603.422 437.394 604.099 440.356C610.984 469.916 608.258 517.353 602.423 547.302Q599.169 564.859 594.358 582.054Q589.547 599.249 583.216 615.945C551.536 698.319 491.215 766.695 418.49 815.488C387.603 836.211 355.26 850.377 320.191 862.431C315.169 864.157 305.115 868.836 299.92 867.577C296.446 866.736 295.042 863.776 293.441 860.917C295.27 849.474 302.608 850.89 311.995 847.778C336.946 839.509 361.805 829.741 384.936 817.182C398.38 809.882 411.435 800.995 423.816 792.02C469.488 758.914 502.627 723.29 533.473 676.288Q537.482 670.138 541.218 663.818Q544.091 658.973 546.813 654.042Q549.535 649.11 552.102 644.097Q554.669 639.083 557.08 633.992Q559.49 628.902 561.742 623.739Q563.993 618.575 566.083 613.345Q568.173 608.114 570.1 602.822Q572.027 597.529 573.789 592.179Q575.551 586.828 577.146 581.426Q578.74 576.024 580.167 570.575Q581.594 565.126 582.85 559.636Q584.107 554.145 585.193 548.618Q586.279 543.091 587.193 537.533Q588.106 531.975 588.847 526.391Q589.588 520.807 590.156 515.203Q590.723 509.599 591.116 503.98Q591.509 498.361 591.728 492.733C592.283 475.587 591.632 456.844 587.286 440.161C581.067 416.291 566.786 392.251 545.009 379.624C530.556 371.244 512.964 367.856 496.687 372.358C466.925 380.59 445.446 409.043 438.474 438.21C436.327 447.192 435.421 456.431 434.212 465.572C432.614 477.645 430.759 489.74 427.838 501.574Q425.342 511.496 422.155 521.218Q418.968 530.94 415.106 540.414Q411.244 549.888 406.726 559.067Q402.208 568.246 397.057 577.086Q392.395 585.05 387.221 592.691Q382.048 600.333 376.385 607.619Q370.722 614.905 364.594 621.805Q358.466 628.705 351.899 635.188C348.689 638.35 344.301 643.499 339.834 644.518C337.982 644.94 336.074 644.649 334.504 643.562C332.577 642.229 331.381 640.055 331.067 637.752C330.158 631.078 340.918 623.321 345.344 618.645Q349.209 614.579 352.908 610.361Q356.606 606.144 360.132 601.781Q363.658 597.417 367.006 592.916Q370.353 588.415 373.517 583.782Q376.681 579.15 379.657 574.395Q382.632 569.639 385.414 564.767Q388.195 559.896 390.779 554.917Q393.363 549.937 395.744 544.858C405.559 523.886 412.06 500.924 416.097 478.165C420.726 452.07 420.348 431.564 433.028 406.759Q435.379 402.208 438.141 397.894Q440.904 393.58 444.054 389.541C459.371 369.696 479.433 356.438 504.44 353.188Z"/>
	<path fill="#282627" d="M502.638 107.72C522.003 107.204 542.148 108.569 561.117 112.626C674.66 136.908 757.525 237.737 801.38 339.943Q810.008 359.884 816.087 380.744C821.637 399.166 826.165 418.121 835.278 435.216C839.461 443.062 845.585 448.869 850.323 456.174Q850.443 457.58 850.523 458.989C850.709 462.373 850.104 465.784 847.64 468.322C846.591 469.401 845.107 470.038 843.591 469.901C841.723 469.733 839.939 468.579 838.561 467.38C833.95 463.365 830.21 457.947 826.878 452.873C811.144 428.918 806.809 404.773 798.014 378.336Q790.735 356.32 780.975 335.285C761.126 292.269 732.175 247.181 699.361 212.997C653.066 164.766 590.509 126.805 522.036 125.419Q515.344 125.097 508.645 125.177Q501.946 125.257 495.264 125.739Q488.582 126.221 481.941 127.103Q475.3 127.985 468.724 129.264C357.661 151.439 275.804 253.852 235.079 353.755Q227.354 372.924 221.215 392.658C214.173 414.737 207.897 437.348 194.775 456.798C192.277 460.501 187.101 469.378 182.478 469.846C180.818 470.014 179.427 469.593 178.149 468.546C175.99 466.777 174.691 463.725 174.573 460.973C174.314 454.921 182.466 446.949 185.57 441.873C188.139 437.672 190.174 433.527 191.993 428.953C201.059 406.167 206.876 382.201 215.233 359.13Q217.178 353.848 219.248 348.614Q221.318 343.38 223.513 338.197Q225.708 333.014 228.025 327.885Q230.343 322.755 232.782 317.683Q235.222 312.61 237.781 307.598Q240.341 302.585 243.02 297.634Q245.698 292.684 248.494 287.799Q251.29 282.914 254.202 278.097Q257.113 273.28 260.139 268.534Q263.165 263.788 266.303 259.115Q269.441 254.443 272.69 249.846Q275.939 245.25 279.296 240.733Q282.654 236.215 286.118 231.779Q289.583 227.343 293.152 222.991Q296.721 218.638 300.393 214.373Q304.065 210.107 307.838 205.93C318.049 194.834 329.337 184.56 340.917 174.915C387.375 136.22 441.633 110.261 502.638 107.72Z"/>
	<path fill="#282627" d="M505.751 395.157C508.496 394.986 511.245 394.815 513.997 394.907C528.409 395.388 541.183 404.059 550.639 414.401C570.946 436.612 571.711 471.15 570.336 499.676C569.268 521.83 565.23 543.378 559.46 564.744C555.396 579.796 550.833 594.701 544.83 609.111C539.682 621.471 533.255 633.278 526.68 644.921Q522.666 652.161 518.349 659.225Q514.032 666.289 509.421 673.164Q504.809 680.039 499.91 686.712Q495.012 693.386 489.835 699.846Q484.658 706.306 479.213 712.542Q473.768 718.777 468.064 724.776Q462.359 730.776 456.406 736.529Q450.453 742.281 444.262 747.777Q440.341 751.324 436.325 754.763Q432.309 758.202 428.201 761.53Q424.093 764.859 419.896 768.074Q415.699 771.289 411.416 774.389Q407.133 777.489 402.767 780.471Q398.401 783.453 393.955 786.315Q389.51 789.177 384.988 791.917Q380.466 794.657 375.871 797.273Q371.276 799.889 366.612 802.379Q361.948 804.869 357.218 807.231Q352.487 809.593 347.695 811.825Q342.902 814.057 338.05 816.158Q333.198 818.259 328.291 820.227Q323.384 822.195 318.425 824.029Q313.466 825.863 308.459 827.561Q303.451 829.259 298.4 830.82C292.385 832.682 278.865 837.761 273.065 837.221C271.385 837.065 270.013 836.069 268.96 834.81C267.161 832.658 265.762 829.243 266.091 826.403C266.744 820.771 274.732 819.783 279.15 818.576C330.745 804.488 367.268 786.722 410.14 754.581Q420.227 746.887 429.747 738.503Q439.267 730.119 448.173 721.085C502.535 666.97 540.924 597.965 551.867 521.554C555.1 499.766 556.489 475.215 552.182 453.489C549.323 439.066 542.45 425.871 529.946 417.59C522.595 412.721 514.062 410.309 505.264 412.221C492.245 415.051 482.462 426.191 477.157 437.882C470.534 452.481 470.806 469.524 468.089 485.14C460.984 525.971 446.557 564.46 423.934 599.198C389.846 651.54 341.01 694.537 282.075 716.581C265.817 722.663 248.547 726.796 231.585 730.353C226.416 731.437 215.754 734.86 211.302 731.726C209.092 730.17 207.991 727.566 207.56 724.973C207.219 722.918 207.06 720.611 208.391 718.868C211.737 714.489 222.714 714.993 227.828 714.257C240.411 712.444 253.483 708.512 265.546 704.525C278.3 700.309 290.909 695.528 302.878 689.398C370.172 654.932 424.233 588.179 444.61 515.394Q449.813 496.304 453.072 476.788C456.799 453.536 455.992 436.109 471.076 416.28C479.797 404.815 491.403 397.138 505.751 395.157Z"/>
	<path fill="#282627" d="M503.622 312.204C521.192 309.962 542.712 314.66 558.487 322.368C602.976 344.106 632.2 391.73 641.307 439.303C643.8 452.322 644.797 465.593 646.277 478.753Q648.395 497.469 652.036 515.949C660.866 559.844 674.676 602.665 696.885 641.729C710.742 666.102 726.43 689.352 745.445 710.044Q761.266 727.486 778.951 743.034C784.552 747.945 790.692 752.348 796.169 757.37C797.389 758.488 798.482 759.815 798.899 761.452C799.461 763.657 798.513 766.093 797.45 768.002C796.522 769.67 795.147 770.978 793.263 771.464C790.632 772.142 787.865 771.037 785.631 769.713C777.043 764.624 763.439 751.591 755.764 744.477C694.893 688.049 654.673 610.726 637.695 529.879Q632.847 506.17 630.17 482.119C628.241 464.433 627.281 446.915 622.446 429.678C612.058 392.646 590.204 359.137 556.166 339.982C535.81 329.846 514.959 326.624 492.541 330.938C445.903 339.912 411.856 388.659 400.887 432.267C398.702 440.951 397.773 449.816 396.429 458.651C394.262 472.901 391.785 487.377 387.965 501.289C380.097 529.944 366.76 558.712 350.145 583.304C319.333 628.913 280.423 663.569 229.806 685.667C222.139 689.014 209.901 694.942 201.809 695.982C200.474 696.154 199.58 695.876 198.515 695.061C196.391 693.437 195.34 689.982 195.049 687.45C194.836 685.6 194.847 682.211 196.54 680.946C200.035 678.333 211.957 675.357 216.879 673.373Q228.088 668.771 238.921 663.343C272.089 646.81 300.495 620.975 323.447 592.185Q325.72 589.308 327.914 586.371Q330.109 583.434 332.224 580.439Q334.339 577.444 336.373 574.393Q338.407 571.343 340.359 568.239Q342.31 565.135 344.177 561.979Q346.045 558.824 347.827 555.62Q349.609 552.416 351.304 549.165Q353 545.914 354.607 542.619Q356.215 539.323 357.734 535.986Q359.252 532.649 360.681 529.272Q362.109 525.896 363.447 522.482Q364.784 519.068 366.03 515.619Q367.275 512.171 368.427 508.69Q369.58 505.21 370.639 501.699Q371.697 498.189 372.661 494.652Q373.625 491.114 374.494 487.552C378.392 471.55 380.094 455.372 383.009 439.207C388.203 410.398 400.144 381.947 419.148 359.488C441.056 333.596 469.13 315.161 503.622 312.204Z"/>
	<path fill="#282627" d="M504.397 189.718C585.869 185.864 657.483 237.126 701.778 302.103C719.864 328.634 733.377 356.863 744.384 386.94Q750.554 404.032 755.094 421.627C762.016 448.87 766.311 472.676 781.479 497.16C795.066 519.092 812.168 536.234 834.35 549.533C837.79 551.595 847.182 554.402 849.227 556.542C850.093 557.447 850.465 559.196 850.517 560.4C850.638 563.194 849.558 568.64 847.388 570.574C846.241 571.597 844.851 571.931 843.347 571.881C834.439 571.582 817.633 559.512 810.606 553.994C780.606 530.436 759.511 499.904 748.527 463.369C744.76 450.839 741.956 438.03 738.659 425.372Q732.351 400.772 723.033 377.148C709.066 342.669 690.027 309.684 665.037 281.979C627.17 239.999 577.356 209.943 520.042 206.965C500.84 206.72 482.256 208.183 463.682 213.323C407.194 228.954 356.722 275.516 326.641 324.744C311.03 350.292 299.351 378.239 289.97 406.609C278.814 440.349 273.212 476.568 255.507 507.786Q254.282 509.954 252.984 512.079Q251.687 514.204 250.318 516.284Q248.95 518.364 247.512 520.397Q246.074 522.429 244.569 524.413Q243.063 526.396 241.492 528.327Q239.92 530.258 238.284 532.135Q236.649 534.013 234.951 535.833Q233.252 537.654 231.494 539.417Q229.735 541.18 227.918 542.882Q226.101 544.584 224.228 546.225Q222.355 547.865 220.427 549.441Q218.5 551.017 216.52 552.527Q214.54 554.037 212.511 555.48Q210.482 556.922 208.405 558.296Q206.328 559.669 204.206 560.971Q202.084 562.274 199.919 563.504C194.537 566.613 188.246 570.156 182.181 571.682C180.117 572.201 177.546 572.487 175.748 571.079C173.774 569.532 173.45 565.572 173.373 563.264C173.311 561.41 173.483 558.738 174.674 557.195C176.835 554.396 189.072 550.032 192.674 548.12C206.425 540.819 218.019 530.897 227.881 518.849C250.747 490.912 257.4 462.824 266.395 429.063Q271.413 410.382 277.599 392.055C291.381 351.662 312.656 307.748 341.584 275.936C387.378 225.578 434.448 193.151 504.397 189.718Z"/>
	<path fill="#282627" d="M508.684 148.727C592.668 146.304 666.937 197.173 716.555 261.519C736.72 287.671 753.721 317.261 767.072 347.402C773.819 362.631 780.08 378.442 784.803 394.425C794.859 428.458 798.881 462.495 824.443 489.756C828.957 494.569 834.322 499.161 839.747 502.912C842.894 505.088 846.421 507.069 849.354 509.512C851.268 511.106 851.757 513.639 851.969 516.021C852.216 518.793 851.95 522.311 849.89 524.421C848.896 525.438 847.562 525.866 846.17 525.845C840.388 525.757 832.22 518.53 827.738 514.957C804.592 496.506 789.08 471.539 780.575 443.399C776.365 429.468 773.38 415.173 769.198 401.219C763.591 382.514 755.964 363.839 747.749 346.145Q744.739 339.524 741.47 333.026Q738.201 326.528 734.678 320.165Q731.156 313.801 727.385 307.581Q723.614 301.361 719.601 295.295Q715.588 289.228 711.339 283.325Q707.09 277.421 702.612 271.69Q698.134 265.959 693.433 260.408Q688.732 254.858 683.816 249.497C645.67 207.558 598.244 176.757 541.438 168.199C532.966 166.923 524.493 166.475 515.946 166.061C498.681 165.657 480.816 167.637 464.007 171.568C445.296 175.944 427.413 183.733 410.573 192.87C335.458 233.629 288.234 307.991 259.589 386.43Q253.468 403.445 248.299 420.773C241.745 442.932 235.796 465.454 223.399 485.247C214.435 499.559 201.808 512.863 187.77 522.192C184.96 524.059 181.504 526.474 178.153 527.137C177.053 527.354 175.714 527.298 174.833 526.534C172.903 524.859 172.506 520.86 172.42 518.462Q172.326 516.315 172.727 514.204C173.741 509.017 179.923 507.071 183.911 504.431C195.657 496.657 206.199 483.475 212.902 471.209C224.958 449.152 229.488 424.689 236.975 401.003C256.127 340.415 285.546 282.161 329.041 235.317C369.006 192.274 421.601 159.942 480.268 151.005C489.7 149.569 499.16 149.073 508.684 148.727Z"/>
	<path fill="#282627" d="M504.458 271.21C519.274 269.489 536.225 272.498 550.395 276.63C615.631 295.654 659.368 357.96 675.334 421.457C680.287 441.156 681.068 461.209 683.83 481.242C689.554 522.742 700.42 563.182 718.86 600.906C733.13 630.1 751.061 658.375 773.031 682.404Q783.205 693.505 794.066 703.935C799.193 708.804 812.054 717.101 814.878 722.687Q815.093 723.104 815.261 723.542Q815.429 723.98 815.549 724.434Q815.669 724.888 815.74 725.352Q815.81 725.816 815.83 726.284Q815.85 726.753 815.819 727.221Q815.788 727.69 815.706 728.152Q815.625 728.614 815.494 729.065Q815.363 729.515 815.184 729.949C814.333 732.072 812.266 734.868 809.967 735.558C808.266 736.069 806.243 735.165 804.751 734.4C791.432 727.568 763.602 697.338 753.362 685.064Q751.254 682.508 749.19 679.916Q747.127 677.324 745.108 674.698Q743.089 672.071 741.115 669.41Q739.141 666.749 737.213 664.055Q735.286 661.36 733.404 658.634Q731.522 655.907 729.688 653.148Q727.854 650.389 726.067 647.599Q724.28 644.81 722.541 641.99Q720.802 639.17 719.111 636.32Q717.421 633.471 715.779 630.593Q714.138 627.715 712.546 624.81Q710.954 621.904 709.412 618.972Q707.87 616.04 706.379 613.081Q704.888 610.123 703.447 607.139Q702.006 604.156 700.617 601.148Q699.228 598.141 697.89 595.11Q696.553 592.079 695.267 589.025Q693.982 585.972 692.749 582.897Q691.516 579.822 690.336 576.726Q689.155 573.63 688.028 570.515Q686.901 567.399 685.828 564.265Q684.754 561.131 683.735 557.979Q682.715 554.826 681.75 551.657Q680.784 548.488 679.873 545.303Q678.962 542.118 678.105 538.917Q677.249 535.717 676.447 532.502Q675.646 529.287 674.899 526.06Q674.153 522.832 673.462 519.592Q672.771 516.352 672.136 513.1Q671.5 509.848 670.921 506.587Q670.341 503.325 669.817 500.053Q669.294 496.782 668.826 493.502C666.719 478.998 665.968 464.34 664.106 449.81Q662.598 438.261 659.94 426.921Q657.281 415.582 653.499 404.566C638.67 361.287 607.065 320.858 565.629 300.525C541.218 288.128 512.022 285.087 485.458 290.986C428.55 303.623 385.874 355.941 368.704 409.603Q363.409 426.314 360.348 443.575C358.855 452.076 357.838 460.672 356.146 469.136C349.797 500.913 336.606 531.599 319.169 558.822Q316.88 562.413 314.463 565.92Q312.047 569.427 309.507 572.845Q306.967 576.263 304.306 579.588Q301.645 582.913 298.867 586.141Q296.089 589.369 293.197 592.496Q290.306 595.622 287.304 598.643Q284.302 601.664 281.195 604.576Q278.087 607.488 274.877 610.287Q271.667 613.085 268.359 615.768Q265.051 618.45 261.65 621.012Q258.248 623.574 254.757 626.013Q251.266 628.452 247.69 630.765Q244.113 633.077 240.457 635.26Q236.8 637.443 233.068 639.495Q229.336 641.546 225.533 643.462Q221.729 645.378 217.86 647.157C210.526 650.451 202.332 654.343 194.457 655.909C192.413 656.315 190.592 656.51 188.83 655.197C186.575 653.516 185.646 649.819 185.47 647.18C184.981 639.869 192.502 639.154 197.932 637.315C238.895 623.444 276.063 591.972 300.758 556.896C316.571 534.437 328.148 510.921 335.581 484.455C340.389 467.336 342.487 449.723 345.951 432.324C353.326 395.282 369.06 358.856 394.004 330.183C422.913 296.952 459.713 274.373 504.458 271.21Z"/>
	<path fill="#282627" d="M498.314 231.209C518.297 229.626 539.552 231.502 558.847 236.866C619.731 253.793 668.679 308.052 694.57 363.822C703.048 382.082 708.938 400.368 713.404 419.968C717.873 439.577 718.512 459.254 720.973 479.122C725.098 512.425 734.051 544.107 747.013 575.027C760.075 606.183 779.944 636.924 803.087 661.561C807.15 665.886 826.521 682.449 827.698 684.74C828.834 686.949 828.6 689.847 827.813 692.128C827.094 694.211 825.691 696.023 823.617 696.875C821.438 697.771 819.103 697.297 817.062 696.269C808.422 691.917 782.852 664.357 775.953 655.752C738.045 608.469 712.991 545.422 705.097 485.462C703.208 471.116 702.754 456.628 700.947 442.282C698.989 426.744 694.893 411.802 689.825 397.012C670.458 340.485 632.531 289.203 578.079 262.533C549.531 248.798 515.195 244.489 484.048 250.298C411.063 263.91 355.16 330.55 333.545 398.471Q327.858 415.83 324.233 433.734C321.977 444.484 320.221 455.371 317.666 466.053Q316.495 470.893 315.107 475.675Q313.72 480.457 312.119 485.172Q310.517 489.887 308.706 494.525Q306.894 499.163 304.876 503.715Q302.858 508.267 300.637 512.724Q298.416 517.181 295.997 521.533Q293.578 525.885 290.966 530.124Q288.353 534.364 285.553 538.481C265.181 568.255 236.422 593.874 203.194 608.295C197.998 610.55 192.06 613.544 186.48 614.445C184.295 614.798 181.841 614.749 180.031 613.306C178.258 611.893 177.568 609.247 177.394 607.087C176.829 600.088 181.941 598.255 187.57 596.383C225.694 583.706 256.862 553.857 278.063 520.369C290.005 501.504 297.923 480.757 302.717 458.984C305.866 444.684 308.04 430.186 311.343 415.899Q312.271 411.96 313.315 408.05Q314.359 404.14 315.517 400.262Q316.676 396.384 317.948 392.543Q319.22 388.701 320.605 384.898Q321.99 381.096 323.486 377.335Q324.983 373.575 326.589 369.861Q328.196 366.146 329.911 362.481Q331.626 358.815 333.448 355.202Q335.271 351.588 337.199 348.03Q339.127 344.472 341.159 340.972Q343.191 337.472 345.325 334.034Q347.459 330.595 349.694 327.221Q351.929 323.847 354.262 320.54Q356.595 317.234 359.024 313.997Q361.454 310.76 363.977 307.597Q366.501 304.433 369.117 301.345C401.699 263.64 447.812 234.924 498.314 231.209Z"/>
</svg>
